<svg enable-background="new 0 0 256 256" viewBox="0 0 256 256" xmlns="http://www.w3.org/2000/svg"><path d="m186.2 86.9v-42.3c0-6.1-5-11.1-11.1-11.1h-31.6c2.8 3.2 2.6 8-.6 10.9-1.4 1.3-3.2 2-5.1 2h-65.4c-4.2 0-7.7-3.4-7.7-7.7 0-1.9.7-3.7 2-5.1h-32.2c-6.1 0-11.1 5-11.1 11.1v197.8c0 6.1 5 11.1 11.1 11.1h140.6c6.1 0 11.1-5 11.1-11.1v-110.4l-23.6 40.8c-.8 1.4-2.4 2.3-4.1 2.1l-6.9 12-14.5 11.3c-.9.7-2.2.5-2.9-.4-.3-.4-.5-1-.4-1.5l2.6-18.2 6.9-12c-1-1.3-1.1-3.1-.3-4.6z" fill="#b26e3b"/><path d="m176 104.6v-60c0-.5-.4-.8-.9-.9h-31.6c-.2.2-.4.4-.6.6-.2.2-.4.3-.6.5-.2.1-.4.3-.6.4l-.1.1c-.2.1-.4.2-.6.3 0 0-.1 0-.1.1-.2.1-.4.2-.6.2-.1 0-.1 0-.2.1-.2.1-.4.1-.6.2-.1 0-.1 0-.2.1-.2 0-.4.1-.6.1-.1 0-.1 0-.2 0-.3 0-.5 0-.8 0h-65.3c-.3 0-.5 0-.8 0-.1 0-.1 0-.2 0-.2 0-.4-.1-.6-.1-.1 0-.1 0-.2-.1-.2 0-.4-.1-.6-.2-.1 0-.1 0-.2-.1-.2-.1-.4-.1-.6-.2 0 0-.1 0-.1-.1-.2-.1-.4-.2-.6-.3l-.1-.1c-.2-.1-.4-.3-.6-.4-.2-.1-.4-.3-.6-.5-.2-.2-.4-.4-.5-.6h-32.2c-.5 0-.8.4-.9.9v197.8c0 .5.4.8.9.9h111.2l30.3-30.3v-63.1l-13.3 23.1c-.8 1.4-2.4 2.3-4.1 2.1l-6.9 12-14.5 11.3c-.9.7-2.2.5-2.9-.4-.3-.4-.5-1-.4-1.5l2.6-18.2 6.9-12c-1-1.3-1.1-3.1-.3-4.6z" fill="#e9e9ea"/><path d="m104.5 104.8h39.1c2.6 0 4.7 2.1 4.7 4.7v10.1c0 2.6-2.1 4.7-4.7 4.7h-39.1c-2.6 0-4.7-2.1-4.7-4.7v-10.1c0-2.6 2.1-4.7 4.7-4.7z" fill="#55acd5"/><path d="m143.5 141.8h-39.1c-2.6 0-4.7 2.1-4.7 4.7v10.1c0 2.6 2.1 4.7 4.7 4.7h38.8l4.9-8.5v-6.2c.1-2.7-2-4.8-4.6-4.8z" fill="#55acd5"/><path d="m133.8 196.4 2.5-17.7h-31.8c-2.6 0-4.7 2.1-4.7 4.7v10.1c0 2.6 2.1 4.7 4.7 4.7h29.9c-.4-.5-.7-1.2-.6-1.8z" fill="#55acd5"/><path d="m143.1 161.6 64.3-111.3c1.2-2 3.7-2.7 5.7-1.5l12.3 7.1c2 1.2 2.7 3.7 1.5 5.7l-64.3 111.3c-1.2 2-3.7 2.7-5.7 1.5l-12.3-7.1c-2-1.1-2.7-3.7-1.5-5.7z" fill="#6d6c6b"/><path d="m225.9 40.7c-4.2-2.4-9.6-1-12 3.2l-2.4 4.2c.6.1 1.1.2 1.6.5l12.3 7.1c.5.3.9.7 1.3 1.1l2.4-4.2c2.4-4.1 1-9.4-3.2-11.9z" fill="#898989"/><path d="m228.9 58.2-9.2 15.8 7.9 4.6 3.3-5.8c2.9-4.8 2-10.8-2-14.6z" fill="#6d6c6b"/><path d="m136.4 178.1-2.6 18.2c-.2 1.1.6 2.2 1.7 2.3.6.1 1.1-.1 1.5-.4l14.5-11.3z" fill="#e9e9ea"/><path d="m156.9 174.4-12.3-7.1c-.5-.3-.9-.7-1.3-1.1l-6.9 12 15.2 8.8 6.9-12c-.5-.1-1.1-.3-1.6-.6z" fill="#ffcd29"/><path d="m188.4 88.1c.2-.4.3-.8.3-1.2v-42.3c0-7.5-6.1-13.6-13.6-13.6h-31.6c-1.4 0-2.5 1.1-2.5 2.5 0 .6.2 1.2.6 1.7 1.9 2.1 1.7 5.4-.4 7.3-1 .9-2.2 1.3-3.5 1.3h-65.3c-2.9 0-5.2-2.3-5.2-5.2 0-1.3.5-2.5 1.3-3.5.9-1 .8-2.6-.2-3.5-.5-.4-1.1-.6-1.7-.6h-32.1c-7.5 0-13.6 6.1-13.6 13.6v197.8c0 7.5 6.1 13.6 13.6 13.6h140.6c7.5 0 13.6-6.1 13.6-13.6v-110.3c0-1.4-1.1-2.5-2.5-2.5-.9 0-1.7.5-2.2 1.2l-23.6 40.8c-.3.6-1 .9-1.7.8-1.1-.1-2.1.5-2.6 1.5l-6.5 11.3-13.2 10.3 2.3-16.6 6.5-11.3c.6-.8.6-1.9.1-2.8 0-.1-.1-.1-.1-.2-.4-.5-.4-1.3-.1-1.9zm-47.5 72.2c-1 1.8-1.2 3.9-.4 5.8l-6.2 10.8c-.2.3-.3.6-.3.9l-2.6 18.2c-.3 2.5 1.4 4.8 3.9 5.1 1.2.2 2.5-.2 3.4-.9l14.5-11.3c.3-.2.5-.4.6-.7l6.2-10.8c2-.3 3.8-1.5 4.8-3.3l18.9-32.8v101c0 4.8-3.9 8.6-8.6 8.6h-140.6c-4.8 0-8.6-3.9-8.6-8.6v-197.7c0-4.8 3.9-8.6 8.6-8.6h28c-1.5 5.4 1.8 11 7.2 12.5.9.2 1.7.3 2.6.3h65.4c5.6 0 10.2-4.6 10.2-10.2 0-.9-.1-1.8-.3-2.6h27.5c4.8 0 8.6 3.9 8.6 8.6v41.6z" fill="#231f20"/><path d="m178.1 105.9c.2-.4.3-.8.3-1.2v-60.1c0-1.9-1.5-3.4-3.4-3.4h-31.6c-.7 0-1.4.3-1.9.8-.1.1-.2.2-.4.4-.1.1-.3.2-.4.3s-.3.2-.5.3c-.1.1-.3.1-.4.2h-.1c-.1.1-.3.1-.4.1h-.1c-.1 0-.2.1-.4.1h-.1c-.1 0-.3 0-.4.1 0 0-.1 0-.2 0-.2 0-.4 0-.6 0h-65.1c-.2 0-.4 0-.5 0h-.2c-.1 0-.3 0-.4-.1h-.1c-.1 0-.3-.1-.4-.1h-.1c-.1 0-.3-.1-.4-.1l-.1-.1c-.1-.1-.3-.1-.4-.2s-.3-.2-.4-.3-.3-.2-.4-.3c-.1-.1-.3-.2-.4-.4-.5-.5-1.2-.8-1.9-.8h-32.2c-1.9 0-3.4 1.5-3.4 3.4v197.8c0 1.9 1.5 3.4 3.4 3.4h111.2c.7 0 1.3-.3 1.8-.7l30.3-30.3c.5-.5.7-1.1.7-1.8v-63.1c0-1.4-1.1-2.5-2.5-2.5-.9 0-1.7.5-2.2 1.2l-13.3 23.1c-.3.6-1 .9-1.7.8-1.1-.1-2.1.5-2.6 1.5l-6.5 11.3-13.2 10.3 2.3-16.6 6.5-11.3c.6-.8.6-1.9.1-2.8 0-.1-.1-.1-.1-.2-.4-.5-.4-1.3-.1-1.9zm-37.2 54.4c-1 1.8-1.2 3.9-.4 5.8l-6.2 10.8c-.2.3-.3.6-.3.9l-2.6 18.2c-.3 2.5 1.4 4.8 3.9 5.1 1.2.2 2.5-.2 3.4-.9l14.5-11.3c.3-.2.5-.4.6-.7l6.2-10.8c2-.3 3.8-1.5 4.8-3.3l8.7-15v52.8l-28.8 28.8h-108.5v-194.5h29.5c.2.2.5.4.7.6s.5.4.8.5l.1.1c.2.1.5.3.8.4l.2.1c.2.1.5.2.8.3l.2.1c.2.1.5.1.8.2.1 0 .2 0 .3.1.3.1.5.1.8.1h.3c.4 0 .7.1 1.1.1h65.4c.4 0 .7 0 1.1-.1h.3c.3 0 .5-.1.8-.1.1 0 .2 0 .3-.1.3-.1.5-.1.7-.2.1 0 .1 0 .2-.1.3-.1.5-.2.7-.3l.2-.1c.3-.1.5-.3.8-.4l.1-.1c.3-.2.5-.3.8-.6.2-.2.5-.4.7-.6h29v57.9z" fill="#231f20"/><path d="m146.5 213c-.5 0-.8.4-.9.9v29.4l30.4-30.3z" fill="#ffcd29"/><path d="m105.1 7.9c-10.2 0-18.4 8.3-18.4 18.4v4.6h10.3v-4.6c0-4.5 3.7-8.2 8.2-8.2s8.2 3.7 8.2 8.2v4.6h10.3v-4.6c-.2-10.2-8.5-18.4-18.6-18.4z" fill="#e9e9ea"/><path d="m137.8 30.9h-65.4c-4.2 0-7.7 3.4-7.7 7.7s3.4 7.7 7.7 7.7h65.4c4.2 0 7.7-3.4 7.7-7.7s-3.5-7.7-7.7-7.7z" fill="#898989"/><path d="m206 161.8c-1.4 0-2.5 1.1-2.5 2.5s1.1 2.5 2.5 2.5 2.5-1.1 2.5-2.5c0-1.3-1.1-2.5-2.5-2.5z" fill="#55acd5"/><path d="m163.3 15.8c-1.4 0-2.5 1.1-2.5 2.5s1.1 2.5 2.5 2.5 2.5-1.1 2.5-2.5c0-1.4-1.1-2.5-2.5-2.5z" fill="#ea4647"/><path d="m229.4 141.6c-3.8-.7-6.8-3.7-7.5-7.5 0-.1-.1-.2-.2-.1-.1 0-.1.1-.1.1-.7 3.8-3.7 6.8-7.5 7.5-.1 0-.2.1-.1.2 0 .1.1.1.1.1 3.8.7 6.8 3.7 7.5 7.5 0 .1.1.2.2.1.1 0 .1-.1.1-.1.7-3.8 3.7-6.8 7.5-7.5.1 0 .2-.1.1-.2 0 0 0-.1-.1-.1z" fill="#6dcc6d"/><path d="m147 4.3h-1.8v-1.8c0-1.4-1.1-2.5-2.5-2.5s-2.5 1.1-2.5 2.5v1.8h-1.8c-1.4 0-2.5 1.1-2.5 2.5s1.1 2.5 2.5 2.5h1.8v1.8c0 1.4 1.1 2.5 2.5 2.5s2.5-1.1 2.5-2.5v-1.8h1.8c1.4 0 2.5-1.1 2.5-2.5s-1.1-2.5-2.5-2.5z" fill="#ffcd29"/><g fill="#231f20"><path d="m178.3 212c-.4-.9-1.3-1.5-2.3-1.5h-29.4c-1.9 0-3.4 1.5-3.4 3.4v29.4c0 1.4 1.1 2.5 2.5 2.5.7 0 1.3-.3 1.8-.7l30.3-30.3c.6-.8.9-1.9.5-2.8zm-30.1 25.2v-21.7h21.7z"/><path d="m137.8 28.4h-65.4c-5.6 0-10.2 4.6-10.2 10.2s4.6 10.2 10.2 10.2h65.4c5.6 0 10.2-4.6 10.2-10.2s-4.6-10.2-10.2-10.2zm0 15.4h-65.4c-2.9 0-5.2-2.3-5.2-5.2s2.3-5.2 5.2-5.2h65.4c2.9 0 5.2 2.3 5.2 5.2s-2.4 5.2-5.2 5.2z"/><path d="m105.1 5.4c-11.6 0-20.9 9.4-20.9 20.9v4.6c0 1.4 1.1 2.5 2.5 2.5h10.3c1.4 0 2.5-1.1 2.5-2.5v-4.6c0-3.1 2.5-5.7 5.7-5.7s5.7 2.5 5.7 5.7v4.6c0 1.4 1.1 2.5 2.5 2.5h10.3c1.4 0 2.5-1.1 2.5-2.5v-4.6c-.2-11.6-9.6-20.9-21.1-20.9zm15.9 23h-5.3v-2.1c0-5.9-4.8-10.7-10.7-10.7s-10.7 4.8-10.7 10.7v2.1h-5.3v-2.1c0-8.8 7.1-15.9 15.9-15.9s16.1 7.1 16.1 15.9z"/><path d="m134.3 43.8c-1.4 0-2.5 1.1-2.5 2.5v6.9c0 2.1-1.7 3.8-3.8 3.8h-45.9c-2.1 0-3.8-1.7-3.8-3.8v-6.9c0-1.4-1.1-2.5-2.5-2.5s-2.5 1.1-2.5 2.5v6.9c0 4.8 3.9 8.8 8.8 8.8h45.9c4.8 0 8.8-3.9 8.8-8.8v-6.9c0-1.4-1.1-2.5-2.5-2.5z"/><path d="m120.5 72.8h-31.1c-1.4 0-2.5 1.1-2.5 2.5s1.1 2.5 2.5 2.5h31.1c1.4 0 2.5-1.1 2.5-2.5s-1.1-2.5-2.5-2.5z"/><path d="m142.2 86.1h-74.3c-1.4 0-2.5 1.1-2.5 2.5s1.1 2.5 2.5 2.5h74.3c1.4 0 2.5-1.1 2.5-2.5s-1.1-2.5-2.5-2.5z"/><path d="m86.6 105.4h-22.2c-1.4 0-2.5 1.1-2.5 2.5s1.1 2.5 2.5 2.5h22.1c1.4 0 2.5-1.1 2.5-2.5s-1.1-2.5-2.4-2.5z"/><path d="m86.6 118.6h-22.2c-1.4 0-2.5 1.1-2.5 2.5s1.1 2.5 2.5 2.5h22.1c1.4 0 2.5-1.1 2.5-2.5s-1.1-2.5-2.4-2.5z"/><path d="m86.6 142.4h-22.2c-1.4 0-2.5 1.1-2.5 2.5s1.1 2.5 2.5 2.5h22.1c1.4 0 2.5-1.1 2.5-2.5s-1.1-2.5-2.4-2.5z"/><path d="m86.6 155.6h-22.2c-1.4 0-2.5 1.1-2.5 2.5s1.1 2.5 2.5 2.5h22.1c1.4 0 2.5-1.1 2.5-2.5s-1.1-2.5-2.4-2.5z"/><path d="m86.6 179.3h-22.2c-1.4 0-2.5 1.1-2.5 2.5s1.1 2.5 2.5 2.5h22.1c1.4 0 2.5-1.1 2.5-2.5s-1.1-2.5-2.4-2.5z"/><path d="m86.6 192.5h-22.2c-1.4 0-2.5 1.1-2.5 2.5s1.1 2.5 2.5 2.5h22.1c1.4 0 2.5-1.1 2.5-2.5s-1.1-2.5-2.4-2.5z"/><path d="m143.5 102.3h-39.1c-4 0-7.2 3.2-7.2 7.2v10.1c0 4 3.2 7.2 7.2 7.2h39.1c4 0 7.2-3.2 7.2-7.2v-10.1c0-4-3.2-7.2-7.2-7.2zm2.2 17.2c0 1.2-1 2.2-2.2 2.2h-39.1c-1.2 0-2.2-1-2.2-2.2v-10.1c0-1.2 1-2.2 2.2-2.2h39.1c1.2 0 2.2 1 2.2 2.2z"/><path d="m152.9 184.8-15.2-8.8c-1.2-.7-2.7-.3-3.4.9-.2.3-.3.6-.3.9l-2.6 18.2c-.4 2.5 1.4 4.8 3.9 5.1 1.2.2 2.5-.2 3.4-.9l14.5-11.3c1.1-.9 1.3-2.4.4-3.5-.2-.3-.4-.5-.7-.6zm-16.4 10.8 1.9-13.4 8.8 5.1z"/><path d="m229.8 57.7c-.5-1.7-1.6-3.2-3.1-4.1l-12.3-7.1c-3.2-1.8-7.3-.7-9.1 2.5l-64.3 111.3c-1.8 3.2-.7 7.3 2.4 9.1l12.3 7.1c3.2 1.8 7.3.7 9.1-2.4l64.3-111.3c.9-1.5 1.1-3.4.7-5.1zm-5 2.6-64.3 111.3c-.5.8-1.5 1.1-2.3.6l-12.3-7.1c-.8-.5-1.1-1.5-.6-2.3l64.3-111.3c.5-.8 1.5-1.1 2.3-.6l12.3 7.1c.7.5 1 1.5.6 2.3z"/><path d="m227.1 38.6c-5.4-3.1-12.3-1.3-15.4 4.1l-2.4 4.2c-.7 1.2-.3 2.7.9 3.4.3.2.6.3 1 .3.2 0 .5.1.7.2l12.3 7.1c.2.1.4.3.5.5.5.6 1.2 1 2 1h.1c.8 0 1.6-.5 2-1.2l2.4-4.2c3.2-5.4 1.3-12.3-4.1-15.4zm-.2 12.9-1 1.8-10.9-6.3 1-1.8c1.7-3 5.6-4 8.6-2.3 3.1 1.7 4.1 5.6 2.3 8.6z"/><path d="m234.6 63.1c-1-3.7-3.4-6.8-6.7-8.8l-15-8.7c-1.2-.7-2.7-.3-3.4.9s-.3 2.7.9 3.4l15 8.7c4.5 2.6 6 8.4 3.4 12.9l-21.7 37.6c-1.2-.6-2.7-.1-3.3 1.2-.6 1.2-.1 2.6 1 3.2l2 1.2c1.2.7 2.7.3 3.4-.9l23-39.8c1.9-3.2 2.4-7.2 1.4-10.9z"/><path d="m230.6 56.4c-1-.9-2.6-.9-3.5.1-.1.1-.2.3-.3.5l-9.1 15.8c-.7 1.2-.3 2.7.9 3.4l7.9 4.6c1.2.7 2.7.3 3.4-.9l3.3-5.8c3.3-5.8 2.3-13.2-2.6-17.7zm-1.8 15.2-2.1 3.6-3.6-2.1 6-10.4c1.4 2.8 1.3 6.2-.3 8.9z"/><path d="m160.8 173.8c-.4-.8-1.1-1.3-2-1.4-.2 0-.5-.1-.7-.2l-12.3-7.1c-.2-.1-.4-.3-.5-.5-.8-1.1-2.4-1.3-3.5-.5-.3.2-.5.5-.7.8l-6.9 12c-.7 1.2-.3 2.7.9 3.4l15.2 8.8c1.2.7 2.7.3 3.4-.9l6.9-12c.5-.7.6-1.6.2-2.4zm-10.1 9.7-10.9-6.3 4.2-7.3 10.9 6.3z"/><path d="m143.5 139.3h-39.1c-4 0-7.2 3.2-7.2 7.2v10.1c0 4 3.2 7.2 7.2 7.2h38.8c.9 0 1.7-.5 2.2-1.2l4.9-8.5c.2-.4.3-.8.3-1.2v-6.2c.1-4.2-3.1-7.4-7.1-7.4zm2.2 12.7-3.9 6.7h-37.4c-1.2 0-2.2-1-2.2-2.2v-10.1c0-1.2 1-2.2 2.2-2.2h39.1c1.2 0 2.2 1 2.2 2.2z"/><path d="m138.2 177.1c-.5-.5-1.2-.9-1.9-.9h-31.8c-4 0-7.2 3.2-7.2 7.2v10.1c0 4 3.2 7.2 7.2 7.2h29.9c1.4 0 2.5-1.1 2.5-2.5 0-.6-.2-1.2-.6-1.6l2.5-17.4c.1-.9-.1-1.6-.6-2.1zm-6.8 18.5h-26.9c-1.2 0-2.2-1-2.2-2.2v-10.1c0-1.2 1-2.2 2.2-2.2h29z"/></g></svg>